<?xml version="1.0" encoding="UTF-8"?>
<!DOCTYPE svg PUBLIC "-//W3C//DTD SVG 1.1//EN" "http://www.w3.org/Graphics/SVG/1.1/DTD/svg11.dtd">
<!-- Creator: CorelDRAW X7 -->
<svg xmlns="http://www.w3.org/2000/svg" xml:space="preserve" width="2.55909in" height="3.28987in" version="1.1" style="shape-rendering:geometricPrecision; text-rendering:geometricPrecision; image-rendering:optimizeQuality; fill-rule:evenodd; clip-rule:evenodd"
viewBox="0 0 1631 2097"
 xmlns:xlink="http://www.w3.org/1999/xlink">
 <defs>
  <style type="text/css">
   <![CDATA[
    .fil0 {fill:black}
   ]]>
  </style>
 </defs>
 <g id="Layer_x0020_1">
  <metadata id="CorelCorpID_0Corel-Layer"/>
  <path class="fil0" d="M1376 687c-17,0 -53,-36 -84,-58 -62,-45 -219,-136 -291,-131l-1 255c68,38 58,17 162,90 36,26 67,61 92,94 56,69 83,120 107,212 22,82 18,153 7,233 -18,129 -87,238 -181,325 -147,134 -356,176 -555,109l-109 -50c-121,-68 -238,-225 -260,-379 -10,-69 -21,-165 6,-230l14 -48c26,-67 9,-45 61,-130 32,-53 80,-100 120,-133 13,-10 22,-17 36,-26 24,-16 99,-60 127,-62l1 -257c-39,-3 -78,20 -106,30 -13,5 -25,7 -38,12 -30,11 -96,50 -123,68 -77,51 -93,71 -150,129 -68,72 -129,169 -161,265 -23,69 -37,110 -46,191 -7,61 -4,130 3,186 28,225 124,373 254,499 25,24 75,66 104,82 55,32 94,60 154,81 10,3 25,10 34,13l114 29c112,10 191,20 314,-2l142 -47c47,-21 142,-66 179,-100 56,-51 94,-72 145,-138 37,-48 82,-121 108,-176 5,-11 11,-22 15,-34 31,-97 28,-59 50,-188 16,-93 8,-613 8,-749 0,-62 0,-124 0,-186 0,-177 25,-164 -59,-224l-118 -73c-15,-7 -22,-7 -33,-16 -15,-11 -15,-13 -40,-13 -1,71 7,522 -2,547z"/>
  <path class="fil0" d="M2 631c21,-4 41,-35 70,-66 23,-24 44,-44 70,-67 76,-67 204,-143 299,-175 33,-11 40,-25 98,-37l27 -9c12,-4 17,-2 30,-5 74,-15 93,-30 93,17l0 1363c0,18 -8,22 49,32 23,5 49,6 75,6 26,0 55,-2 77,-5 59,-9 51,3 50,-104l2 -1322c41,0 65,10 97,16 31,6 64,14 91,25 29,13 54,20 81,33 15,7 70,31 86,32l1 -240c0,-56 -24,-33 -84,-60 -36,-17 -54,-11 -85,-25 -1,-1 -2,-1 -3,-2l-7 -2c-6,-1 -13,-2 -18,-4 -92,-23 -286,-41 -393,-27 -23,3 -55,5 -79,10 -85,15 -132,23 -217,50 -127,41 -242,103 -352,179 -73,50 -58,46 -58,120l0 267z"/>
 </g>
</svg>
